<svg
   viewBox="0 0 8.210102 11.854794"
   version="1.1"
   xmlns="http://www.w3.org/2000/svg"
   xmlns:svg="http://www.w3.org/2000/svg">

   <path style="fill:currentColor"
      d="M 0,9.38e-5 V 1.437139 a 1.4440142,1.4440142 0 0 1 0,0.00703 c 0,2.8881221 1.520798,4.0808931 3.549877,5.8077291 1.369481,1.165505 2.970532,2.574299 3.866716,4.6028159 h 0.79351 v -1.433092 c 0,-0.0039 0,-0.0077 0,-0.01156 C 8.206003,7.5302861 6.686602,6.3385131 4.660225,4.6139601 3.288244,3.4463431 1.683991,2.0344703 0.7888061,0 Z m 4.035486,0 C 4.666444,0.8513706 5.538221,1.56894 6.531863,2.4145916 7.074333,2.8762621 7.653148,3.3761221 8.210103,3.9375611 V 9.38e-5 Z M 0,7.9284681 V 11.854794 H 4.166287 C 3.535971,11.008361 2.66749,10.293417 1.678162,9.4514371 1.135676,8.9897671 0.5569082,8.4899071 0,7.9284681 Z" />
</svg>